<svg width="1200" height="420" viewBox="0 0 1200 420" fill="none" xmlns="http://www.w3.org/2000/svg">
  <defs>
    <linearGradient id="goldText" x1="250" y1="220" x2="950" y2="360" gradientUnits="userSpaceOnUse">
      <stop offset="0" stop-color="#fff5be"/>
      <stop offset="0.33" stop-color="#f6d25f"/>
      <stop offset="0.65" stop-color="#d09522"/>
      <stop offset="1" stop-color="#7f4a00"/>
    </linearGradient>

    <linearGradient id="goldBand" x1="250" y1="0" x2="950" y2="0" gradientUnits="userSpaceOnUse">
      <stop offset="0" stop-color="#efc349"/>
      <stop offset="0.5" stop-color="#ffe58c"/>
      <stop offset="1" stop-color="#cb850d"/>
    </linearGradient>

    <linearGradient id="turbanRed" x1="0" y1="0" x2="1" y2="1">
      <stop offset="0" stop-color="#ff3b1f"/>
      <stop offset="0.55" stop-color="#df1808"/>
      <stop offset="1" stop-color="#940800"/>
    </linearGradient>

    <linearGradient id="moonWhite" x1="0" y1="0" x2="1" y2="1">
      <stop offset="0" stop-color="#ffffff"/>
      <stop offset="1" stop-color="#d9d9d9"/>
    </linearGradient>

    <filter id="softShadow" x="-20%" y="-20%" width="150%" height="150%">
      <feDropShadow dx="0" dy="8" stdDeviation="6" flood-color="#2a1a06" flood-opacity="0.42"/>
    </filter>

    <mask id="moonCrescentCut">
      <rect width="1200" height="420" fill="white"/>
      <circle cx="303" cy="93" r="43" fill="black"/>
    </mask>
  </defs>

  <g filter="url(#softShadow)">
    <circle cx="266" cy="93" r="51" fill="url(#moonWhite)" mask="url(#moonCrescentCut)"/>
  </g>

  <g filter="url(#softShadow)">
    <path d="M320 158 C358 131, 437 111, 532 106 C625 100, 719 107, 801 126 C834 133, 864 148, 878 164 C888 176, 890 190, 883 201 C872 216, 848 223, 817 220 C783 217, 753 201, 730 181 C699 153, 650 139, 588 139 C511 140, 447 159, 399 187 C376 200, 353 207, 335 204 C323 202, 315 197, 311 189 C306 177, 310 167, 320 158 Z" fill="url(#turbanRed)"/>
    <path d="M754 132 C777 134, 804 147, 822 170 C834 186, 839 207, 833 225 C829 238, 820 246, 809 247 C800 248, 792 243, 789 236 C786 229, 788 221, 794 213 C801 204, 812 200, 825 201 C816 184, 800 171, 780 164 C765 158, 756 149, 756 140 C756 135, 758 132, 763 131 C767 130, 771 130, 774 131 Z" fill="#f2c427"/>
    <path d="M470 126 C501 118, 532 117, 564 123" stroke="#ff9688" stroke-width="8" stroke-linecap="round" opacity="0.22"/>
    <path d="M542 121 C576 114, 611 114, 649 122" stroke="#ff9688" stroke-width="8" stroke-linecap="round" opacity="0.2"/>
    <path d="M620 122 C654 118, 689 120, 723 128" stroke="#ff9688" stroke-width="7" stroke-linecap="round" opacity="0.18"/>
  </g>

  <g filter="url(#softShadow)">
    <path d="M246 230 C336 211, 846 211, 950 230 L950 286 C848 266, 337 266, 246 286 Z" fill="url(#goldBand)"/>
    <path d="M250 230 C338 214, 850 214, 946 230" stroke="#ffeeb8" stroke-width="5" opacity="0.54"/>
    <path d="M246 286 C338 266, 856 266, 952 286" stroke="#9f6307" stroke-width="4" opacity="0.42"/>
    <rect x="586" y="214" width="28" height="70" rx="9" fill="#d00e0e"/>
    <rect x="591" y="218" width="18" height="62" rx="7" fill="#f13326"/>
  </g>

  <text x="600" y="366" text-anchor="middle" font-family="Tiro Devanagari Marathi, Mangal, serif" font-size="130" font-weight="800" fill="url(#goldText)">
    जय मल्हार
  </text>
</svg>
